<mxfile host="Electron" modified="2023-12-18T22:06:58.550Z" agent="Mozilla/5.0 (Windows NT 10.0; Win64; x64) AppleWebKit/537.36 (KHTML, like Gecko) draw.io/22.1.2 Chrome/114.0.5735.289 Electron/25.9.4 Safari/537.36" etag="0EANRXDwaBogGehRNapv" version="22.1.2" type="device">
  <diagram name="Page-1" id="A24joaEpZq1DeqcNf4ul">
    <mxGraphModel dx="1098" dy="828" grid="1" gridSize="10" guides="1" tooltips="1" connect="1" arrows="1" fold="1" page="1" pageScale="1" pageWidth="850" pageHeight="1100" math="0" shadow="0">
      <root>
        <mxCell id="0" />
        <mxCell id="1" parent="0" />
        <mxCell id="Ltvoup9ApSQ8xweXPyZZ-1" style="edgeStyle=orthogonalEdgeStyle;rounded=0;orthogonalLoop=1;jettySize=auto;html=1;" edge="1" parent="1" source="Ltvoup9ApSQ8xweXPyZZ-2" target="Ltvoup9ApSQ8xweXPyZZ-5">
          <mxGeometry relative="1" as="geometry" />
        </mxCell>
        <mxCell id="Ltvoup9ApSQ8xweXPyZZ-2" value="User" style="shape=umlActor;verticalLabelPosition=bottom;verticalAlign=top;html=1;outlineConnect=0;" vertex="1" parent="1">
          <mxGeometry x="384" y="90" width="30" height="60" as="geometry" />
        </mxCell>
        <mxCell id="Ltvoup9ApSQ8xweXPyZZ-3" style="edgeStyle=orthogonalEdgeStyle;rounded=0;orthogonalLoop=1;jettySize=auto;html=1;entryX=0.5;entryY=0;entryDx=0;entryDy=0;" edge="1" parent="1" source="Ltvoup9ApSQ8xweXPyZZ-5" target="Ltvoup9ApSQ8xweXPyZZ-8">
          <mxGeometry relative="1" as="geometry" />
        </mxCell>
        <mxCell id="Ltvoup9ApSQ8xweXPyZZ-5" value="Open home page" style="rounded=1;whiteSpace=wrap;html=1;" vertex="1" parent="1">
          <mxGeometry x="339" y="230" width="120" height="60" as="geometry" />
        </mxCell>
        <mxCell id="Ltvoup9ApSQ8xweXPyZZ-30" value="" style="edgeStyle=orthogonalEdgeStyle;rounded=0;orthogonalLoop=1;jettySize=auto;html=1;" edge="1" parent="1" source="Ltvoup9ApSQ8xweXPyZZ-8" target="Ltvoup9ApSQ8xweXPyZZ-29">
          <mxGeometry relative="1" as="geometry" />
        </mxCell>
        <mxCell id="Ltvoup9ApSQ8xweXPyZZ-8" value="User selects a previously entered property" style="rounded=1;whiteSpace=wrap;html=1;" vertex="1" parent="1">
          <mxGeometry x="339" y="320" width="120" height="60" as="geometry" />
        </mxCell>
        <mxCell id="Ltvoup9ApSQ8xweXPyZZ-12" value="User views previous open home details." style="rounded=1;whiteSpace=wrap;html=1;" vertex="1" parent="1">
          <mxGeometry x="110" y="465" width="120" height="60" as="geometry" />
        </mxCell>
        <mxCell id="Ltvoup9ApSQ8xweXPyZZ-31" value="" style="edgeStyle=orthogonalEdgeStyle;rounded=0;orthogonalLoop=1;jettySize=auto;html=1;" edge="1" parent="1" source="Ltvoup9ApSQ8xweXPyZZ-29" target="Ltvoup9ApSQ8xweXPyZZ-12">
          <mxGeometry relative="1" as="geometry" />
        </mxCell>
        <mxCell id="Ltvoup9ApSQ8xweXPyZZ-33" value="" style="edgeStyle=orthogonalEdgeStyle;rounded=0;orthogonalLoop=1;jettySize=auto;html=1;" edge="1" parent="1" source="Ltvoup9ApSQ8xweXPyZZ-29" target="Ltvoup9ApSQ8xweXPyZZ-32">
          <mxGeometry relative="1" as="geometry" />
        </mxCell>
        <mxCell id="Ltvoup9ApSQ8xweXPyZZ-29" value="&lt;font style=&quot;font-size: 10px;&quot;&gt;Are there previous open home registers for this property?&lt;/font&gt;" style="rhombus;whiteSpace=wrap;html=1;" vertex="1" parent="1">
          <mxGeometry x="314.5" y="420" width="169" height="150" as="geometry" />
        </mxCell>
        <mxCell id="Ltvoup9ApSQ8xweXPyZZ-32" value="User adds a new open home register to property. See new open home register flow" style="rounded=1;whiteSpace=wrap;html=1;" vertex="1" parent="1">
          <mxGeometry x="570" y="465" width="140" height="60" as="geometry" />
        </mxCell>
        <mxCell id="Ltvoup9ApSQ8xweXPyZZ-34" value="Yes" style="text;html=1;align=center;verticalAlign=middle;resizable=0;points=[];autosize=1;strokeColor=none;fillColor=none;" vertex="1" parent="1">
          <mxGeometry x="250" y="468" width="40" height="30" as="geometry" />
        </mxCell>
        <mxCell id="Ltvoup9ApSQ8xweXPyZZ-35" value="No" style="text;html=1;align=center;verticalAlign=middle;resizable=0;points=[];autosize=1;strokeColor=none;fillColor=none;" vertex="1" parent="1">
          <mxGeometry x="500" y="468" width="40" height="30" as="geometry" />
        </mxCell>
      </root>
    </mxGraphModel>
  </diagram>
</mxfile>
